#!OML:ASF X:\für Bonn\!DataBase\2005_08_10_Bjorn_Final\c3d\bjorn.ASF
:FULLY-SPECIFIED
:DEGREES
81
root 0.392362 17.2164 8.37621 -2329.08 6.94131 164.003
lowerback 43.8195 -12.3267 3.91833
upperback 24.5688 -2.36792 0.978314
thorax 6.84713 2.93296 0.290722
lowerneck 8.6903 -6.71816 3.86442
upperneck -0.959689 -8.42186 3.10258
head -1.79761 -4.29425 0.680643
rclavicle 5.725e-014 2.34566e-014
rhumerus -333.186 -19.6205 283.99
rradius 24.2948
rwrist -4.06285
rhand -18.667 10.673
rfingers 7.12502
rthumb 7.6266 -19.1695
lclavicle 5.725e-014 2.34566e-014
lhumerus 7.39827 -23.4663 72.6796
lradius 33.2267
lwrist -2.45401
lhand -13.5911 -10.1932
lfingers 7.12502
lthumb 12.5233 739.411
rfemur -60.12 -16.6215 3.08935
rtibia 63.8044
rfoot -9.42825 19.307
rtoes -3.28414
lfemur 126.63 175.309 151.535
ltibia 55.3415
lfoot -12.3715 8.75803
ltoes -8.10358
82
root 0.381534 17.1444 8.39973 -2328.81 7.12122 163.998
lowerback 44.1497 -12.4028 4.05075
upperback 24.5516 -2.35187 1.10149
thorax 6.75157 2.93556 0.355147
lowerneck 8.79803 -6.7158 4.09229
upperneck -1.25179 -8.39302 2.92455
head -1.93218 -4.28537 0.600221
rclavicle -9.22361e-014 3.8763e-014
rhumerus -332.562 -19.8478 284.179
rradius 23.8436
rwrist -3.9549
rhand -19.0216 11.3457
rfingers 7.12502
rthumb 7.28431 -18.5089
lclavicle -9.22361e-014 3.8763e-014
lhumerus 7.63279 -23.724 72.6422
lradius 33.114
lwrist -1.15987
lhand -14.294 -10.5362
lfingers 7.12502
lthumb 11.8456 739.109
rfemur -61.1332 -16.5931 3.16207
rtibia 64.6283
rfoot -9.62288 19.3541
rtoes -3.32839
lfemur 125.705 175.231 151.508
ltibia 56.2462
lfoot -12.451 8.51501
ltoes -7.7113
83
root 0.369913 17.0713 8.42319 -2328.52 7.30498 163.979
lowerback 44.4267 -12.4707 4.17972
upperback 24.5508 -2.33039 1.2148
thorax 6.68869 2.9419 0.409773
lowerneck 8.83686 -6.71306 4.36394
upperneck -1.52004 -8.36515 2.72498
head -2.0502 -4.27593 0.50213
rclavicle 8.90555e-014 2.90226e-014
rhumerus -331.899 -20.1461 284.305
rradius 23.3132
rwrist -3.78448
rhand -19.3462 11.9611
rfingers 7.12502
rthumb 6.97092 -17.9041
lclavicle 8.90555e-014 2.90226e-014
lhumerus 7.90409 -23.9452 72.6132
lradius 32.9626
lwrist 0.039044
lhand -15.0317 -10.8987
lfingers 7.12502
lthumb 11.1341 738.786
rfemur -62.1621 -16.5515 3.21383
rtibia 65.4565
rfoot -9.86465 19.3856
rtoes -3.64283
lfemur 124.754 175.148 151.467
ltibia 57.1835
lfoot -12.6274 8.22023
ltoes -7.33235
84
root 0.357668 16.9968 8.44611 -2328.26 7.48088 163.946
lowerback 44.7139 -12.5461 4.30258
upperback 24.5366 -2.32449 1.30684
thorax 6.60769 2.94089 0.448787
lowerneck 8.91514 -6.68585 4.63428
upperneck -1.81886 -8.30001 2.56321
head -2.18423 -4.25014 0.416069
rclavicle 0 -6.2816e-014
rhumerus -331.195 -20.5348 284.303
rradius 22.6822
rwrist -3.47825
rhand -19.6003 12.4874
rfingers 7.12502
rthumb 6.7257 -17.3858
lclavicle 0 -6.2816e-014
lhumerus 8.13984 -24.1378 72.5804
lradius 32.7959
lwrist 1.10358
lhand -15.8752 -11.3135
lfingers 7.12502
lthumb 10.3206 738.413
rfemur -63.1582 -16.5065 3.22958
rtibia 66.2769
rfoot -10.08 19.4199
rtoes -3.83334
lfemur 123.817 175.055 151.396
ltibia 58.1464
lfoot -12.8764 7.94979
ltoes -7.31908
85
root 0.344241 16.9227 8.46886 -2327.99 7.65714 163.914
lowerback 45.1139 -12.6304 4.47831
upperback 24.3743 -2.31033 1.38087
thorax 6.51715 2.94668 0.454045
lowerneck 8.99246 -6.66037 4.81381
upperneck -2.0961 -8.24358 2.48682
head -2.30319 -4.23015 0.37068
rclavicle -8.26944e-014 -1.03368e-014
rhumerus -330.51 -21.0624 284.211
rradius 22.0584
rwrist -3.07786
rhand -19.7348 12.8238
rfingers 7.12502
rthumb 6.59581 -17.0535
lclavicle -8.26944e-014 -1.03368e-014
lhumerus 8.37239 -24.2649 72.6135
lradius 32.5742
lwrist 1.86979
lhand -16.9113 -11.6956
lfingers 7.12502
lthumb 9.32094 738.078
rfemur -64.1565 -16.4518 3.23986
rtibia 67.0974
rfoot -10.3552 19.4257
rtoes -4.15113
lfemur 122.867 174.977 151.324
ltibia 59.1214
lfoot -13.1439 7.74843
ltoes -7.83129
86
root 0.330956 16.8464 8.49139 -2327.73 7.83169 163.882
lowerback 46.2988 -12.7664 4.70199
upperback 23.5762 -2.28595 1.4105
thorax 6.27263 2.94779 0.453656
lowerneck 9.08319 -6.61426 4.95757
upperneck -2.37394 -8.16235 2.39569
head -2.42408 -4.19678 0.325296
rclavicle -5.725e-014 1.43125e-014
rhumerus -329.759 -21.6492 284.023
rradius 21.3585
rwrist -2.57815
rhand -19.7915 13.0777
rfingers 7.12502
rthumb 6.54109 -16.8013
lclavicle -5.725e-014 1.43125e-014
lhumerus 8.61213 -24.2836 72.6755
lradius 32.3349
lwrist 2.40662
lhand -17.9937 -12.0055
lfingers 7.12502
lthumb 8.27637 737.812
rfemur -65.1533 -16.3963 3.24149
rtibia 67.9151
rfoot -10.5583 19.4418
rtoes -4.29254
lfemur 121.897 174.891 151.242
ltibia 60.1008
lfoot -13.393 7.69227
ltoes -8.92419
87
root 0.316735 16.7687 8.51344 -2327.47 8.01163 163.819
lowerback 46.5598 -12.8319 4.84118
upperback 23.5195 -2.28107 1.4845
thorax 6.17164 2.94227 0.468957
lowerneck 9.13243 -6.57435 5.11537
upperneck -2.57867 -8.09206 2.28049
head -2.51483 -4.16582 0.266628
rclavicle -2.8625e-014 2.38542e-015
rhumerus -329.063 -22.2707 283.802
rradius 20.6892
rwrist -2.0519
rhand -19.769 13.119
rfingers 7.12502
rthumb 6.56277 -16.7593
lclavicle -2.8625e-014 2.38542e-015
lhumerus 8.78286 -24.2046 72.8272
lradius 32.0858
lwrist 2.65151
lhand -19.1827 -12.2911
lfingers 7.12502
lthumb 7.12877 737.569
rfemur -66.1582 -16.335 3.19882
rtibia 68.7418
rfoot -10.8017 19.4201
rtoes -4.60622
lfemur 120.913 174.806 151.12
ltibia 61.0746
lfoot -13.6476 7.74029
ltoes -10.1727
88
root 0.301389 16.6902 8.53521 -2327.23 8.17843 163.767
lowerback 46.8079 -12.908 4.99673
upperback 23.4758 -2.27434 1.5594
thorax 6.08845 2.94218 0.478728
lowerneck 9.19908 -6.5333 5.28853
upperneck -2.81095 -8.01707 2.16143
head -2.61927 -4.13342 0.204894
rclavicle 7.95139e-014 4.77083e-015
rhumerus -328.428 -22.9048 283.576
rradius 20.0961
rwrist -1.5304
rhand -19.6717 13.0153
rfingers 7.12502
rthumb 6.65676 -16.8601
lclavicle 7.95139e-014 4.77083e-015
lhumerus 8.98166 -24.1355 72.9682
lradius 31.8398
lwrist 2.71698
lhand -20.4008 -12.4444
lfingers 7.12502
lthumb 5.95285 737.452
rfemur -67.1321 -16.2875 3.16552
rtibia 69.5671
rfoot -11.0486 19.3975
rtoes -4.83838
lfemur 119.939 174.733 151.011
ltibia 62.0481
lfoot -13.8807 7.81617
ltoes -11.5962
89
root 0.285231 16.6092 8.55641 -2327.01 8.34948 163.671
lowerback 47.0473 -12.9728 5.12427
upperback 23.4241 -2.27243 1.62748
thorax 5.99826 2.93568 0.494645
lowerneck 9.28212 -6.50426 5.42683
upperneck -3.037 -7.95934 2.07236
head -2.72212 -4.11006 0.159388
rclavicle -4.77083e-014 -9.78021e-014
rhumerus -327.82 -23.5513 283.331
rradius 19.5322
rwrist -1.01636
rhand -19.5149 12.8523
rfingers 7.12502
rthumb 6.80815 -17.0182
lclavicle -4.77083e-014 -9.78021e-014
lhumerus 9.14225 -24.0009 73.1576
lradius 31.5845
lwrist 2.576
lhand -21.6203 -12.5893
lfingers 7.12502
lthumb 4.77537 737.337
rfemur -68.1118 -16.2539 3.07426
rtibia 70.4062
rfoot -11.2843 19.3957
rtoes -5.14529
lfemur 118.977 174.674 150.851
ltibia 63.0243
lfoot -14.1497 7.77408
ltoes -12.8404
90
root 0.267958 16.5262 8.57676 -2326.78 8.52682 163.589
lowerback 47.245 -13.0472 5.27012
upperback 23.3791 -2.28404 1.67671
thorax 5.92126 2.92555 0.486268
lowerneck 9.35502 -6.47529 5.59096
upperneck -3.25605 -7.90088 1.95318
head -2.82368 -4.08532 0.0990397
rclavicle 4.77083e-014 9.66093e-014
rhumerus -327.188 -24.262 282.976
rradius 18.9526
rwrist -0.42694
rhand -19.3365 12.7099
rfingers 7.12502
rthumb 6.9803 -17.155
lclavicle 4.77083e-014 9.66093e-014
lhumerus 9.26755 -23.8587 73.321
lradius 31.3763
lwrist 2.38124
lhand -22.8221 -12.6522
lfingers 7.12502
lthumb 3.61486 737.297
rfemur -69.1027 -16.2134 2.997
rtibia 71.2498
rfoot -11.5519 19.3652
rtoes -5.50332
lfemur 117.995 174.611 150.696
ltibia 64.0104
lfoot -14.4106 7.58594
ltoes -13.7496
91
root 0.250049 16.4408 8.59688 -2326.59 8.70568 163.477
lowerback 47.4344 -13.1169 5.40066
upperback 23.3441 -2.29076 1.72222
thorax 5.85765 2.91916 0.480263
lowerneck 9.39464 -6.45193 5.70938
upperneck -3.4594 -7.85634 1.87171
head -2.91007 -4.06792 0.0571512
rclavicle -6.67916e-014 -6.20208e-014
rhumerus -326.602 -24.9806 282.645
rradius 18.4061
rwrist 0.139192
rhand -19.1083 12.4991
rfingers 7.12502
rthumb 7.20063 -17.3584
lclavicle -6.67916e-014 -6.20208e-014
lhumerus 9.36748 -23.7373 73.4977
lradius 31.2021
lwrist 2.07335
lhand -24.0143 -12.6707
lfingers 7.12502
lthumb 2.46354 737.295
rfemur -70.0703 -16.1862 2.87555
rtibia 72.1058
rfoot -11.7666 19.3788
rtoes -5.6234
lfemur 117.041 174.547 150.51
ltibia 65.0091
lfoot -14.6718 7.29148
ltoes -14.5006
